<svg width="11" height="11" viewBox="0 0 11 11" fill="none" xmlns="http://www.w3.org/2000/svg">
<path fill-rule="evenodd" clip-rule="evenodd" d="M5.49715 11C4.70919 11.0013 3.93016 10.8332 3.21281 10.5072C2.49546 10.1812 1.8565 9.70489 1.33925 9.11048C0.821997 8.51608 0.438507 7.81747 0.214734 7.06196C-0.00903849 6.30645 -0.0678617 5.51167 0.0422436 4.73145C0.152349 3.95123 0.428837 3.20377 0.852943 2.53969C1.27705 1.87561 1.83887 1.3104 2.50041 0.882346C3.16196 0.454291 3.90779 0.173389 4.68734 0.0586382C5.46689 -0.056113 6.26196 -0.00202873 7.01879 0.217239L6.52381 1.03674C5.59718 0.82376 4.62727 0.904236 3.74841 1.26701C2.86955 1.62978 2.12521 2.25689 1.6186 3.06147C1.11199 3.86605 0.868173 4.80828 0.920865 5.75761C0.973557 6.70694 1.32019 7.6164 1.91273 8.35997C2.50526 9.10355 3.31439 9.64443 4.228 9.90771C5.14161 10.171 6.11448 10.1436 7.01185 9.82941C7.90922 9.5152 8.68668 8.92969 9.23649 8.15398C9.7863 7.37828 10.0812 6.45078 10.0805 5.49999C10.0805 4.97589 9.98902 4.45581 9.81008 3.9632L10.3922 2.99703C10.8217 3.83519 11.0286 4.76965 10.9931 5.71078C10.9576 6.65191 10.6809 7.56813 10.1895 8.37155C9.69805 9.17498 9.00845 9.83866 8.18678 10.2989C7.36511 10.7592 6.43894 11.0006 5.49715 11V11ZM5.91883 7.04411C5.89807 7.10532 5.86353 7.16098 5.81796 7.20682C5.77526 7.24993 5.72348 7.28297 5.66639 7.3035C5.6093 7.32404 5.54834 7.33156 5.48797 7.32553C5.39268 7.33218 5.29801 7.30603 5.21964 7.25141C5.14127 7.1968 5.08393 7.11702 5.05716 7.02533L3.3063 5.27541C3.23653 5.19678 3.1994 5.09449 3.20252 4.98941C3.20563 4.88434 3.24879 4.78442 3.32309 4.71006C3.39739 4.6357 3.49726 4.59251 3.60233 4.58931C3.7074 4.58611 3.80971 4.62317 3.88839 4.69287L5.37798 6.1829L8.76507 1.15315C8.79442 1.09945 8.83424 1.05216 8.88217 1.01409C8.93009 0.97602 8.98513 0.94793 9.04408 0.931483C9.10303 0.915036 9.1647 0.91057 9.22541 0.918335C9.28612 0.9261 9.34465 0.945949 9.39757 0.976704C9.50399 1.04237 9.58072 1.14684 9.61152 1.26804C9.64231 1.38924 9.62473 1.51766 9.56256 1.62616L5.91883 7.04411Z" fill="#CFD3D8"/>
</svg>
