<svg width="15" height="15" viewBox="0 0 15 15" fill="none" xmlns="http://www.w3.org/2000/svg">
<path d="M7.52014 1.23398C7.45416 1.16416 7.40258 1.08202 7.36834 0.992266C7.3341 0.902507 7.31788 0.806884 7.32059 0.710855C7.32331 0.614826 7.34492 0.520272 7.38417 0.432593C7.42343 0.344913 7.47958 0.265825 7.5494 0.199843C7.61922 0.133861 7.70136 0.0822784 7.79112 0.0480394C7.88088 0.0138005 7.9765 -0.00242397 8.07253 0.000292545C8.16856 0.00300906 8.26311 0.0246133 8.35079 0.0638717C8.43847 0.10313 8.51756 0.159274 8.58354 0.229097L14.8001 6.81132C14.9285 6.94711 15 7.1269 15 7.31377C15 7.50064 14.9285 7.68042 14.8001 7.81621L8.58354 14.3992C8.51799 14.4705 8.43892 14.5281 8.35092 14.5687C8.26292 14.6092 8.16774 14.6319 8.07091 14.6353C7.97408 14.6387 7.87754 14.6229 7.78688 14.5887C7.69622 14.5545 7.61326 14.5027 7.54282 14.4361C7.47237 14.3696 7.41585 14.2898 7.37653 14.2012C7.3372 14.1127 7.31587 14.0172 7.31376 13.9203C7.31165 13.8235 7.32881 13.7271 7.36424 13.637C7.39967 13.5468 7.45266 13.4645 7.52014 13.395L13.2628 7.31377L7.52014 1.23398Z" fill="#A965CD"/>
<path d="M0.206546 1.23398C0.140565 1.16416 0.0889821 1.08202 0.0547433 0.992266C0.0205045 0.902507 0.00427961 0.806884 0.00699615 0.710855C0.0097127 0.614826 0.0313168 0.520272 0.0705752 0.432593C0.109834 0.344913 0.165977 0.265825 0.235801 0.199843C0.305624 0.133861 0.387761 0.0822784 0.47752 0.0480394C0.567278 0.0138005 0.662901 -0.00242397 0.75893 0.000292545C0.854959 0.00300906 0.949513 0.0246133 1.03719 0.0638717C1.12487 0.10313 1.20396 0.159274 1.26994 0.229097L7.48649 6.81132C7.61487 6.94711 7.6864 7.1269 7.6864 7.31377C7.6864 7.50064 7.61487 7.68042 7.48649 7.81621L1.26994 14.3992C1.2044 14.4705 1.12532 14.5281 1.03732 14.5687C0.949321 14.6092 0.854142 14.6319 0.757314 14.6353C0.660486 14.6387 0.56394 14.6229 0.473283 14.5887C0.382626 14.5545 0.299666 14.5027 0.229221 14.4361C0.158776 14.3696 0.102251 14.2898 0.0629282 14.2012C0.0236058 14.1127 0.00227022 14.0172 0.000160694 13.9203C-0.00194883 13.8235 0.0152092 13.7271 0.0506392 13.637C0.0860691 13.5468 0.139064 13.4645 0.206546 13.395L5.94917 7.31377L0.206546 1.23398Z" fill="#A965CD"/>
</svg>
