<svg width="15" height="15" viewBox="0 0 15 15" fill="none" xmlns="http://www.w3.org/2000/svg">
<path d="M14.1261 11.4293L11.8945 9.1924C11.45 8.74869 10.7139 8.76217 10.254 9.22335L9.12968 10.3499C9.05865 10.3107 8.98513 10.2697 8.90783 10.2262C8.19786 9.83195 7.22614 9.29155 6.20361 8.26595C5.17805 7.23819 4.63837 6.26277 4.24378 5.55074C4.20214 5.4753 4.16225 5.40257 4.12285 5.3335L4.87741 4.57836L5.24838 4.20609C5.70906 3.74424 5.72176 3.0067 5.27831 2.5617L3.04672 0.32456C2.60327 -0.119814 1.86686 -0.106333 1.40618 0.355516L0.777239 0.989498L0.794426 1.0066C0.583535 1.2763 0.407308 1.58736 0.276165 1.92281C0.155277 2.24211 0.0800118 2.5468 0.0455968 2.85212C-0.249069 5.30051 0.867241 7.53814 3.89676 10.5746C8.08449 14.7715 11.4592 14.4544 11.6048 14.439C11.9219 14.401 12.2258 14.325 12.5346 14.2048C12.8664 14.0749 13.1765 13.8986 13.4455 13.6876L13.4592 13.6999L14.0964 13.0746C14.5561 12.6128 14.5693 11.875 14.1261 11.4293Z" fill="white"/>
</svg>
