<svg width="71" height="24" viewBox="0 0 71 24" fill="none" xmlns="http://www.w3.org/2000/svg">
<g clip-path="url(#clip0_521_9144)">
<path d="M2.94288 2.62495H67.6616V21.375H2.94288V2.62495ZM0.302246 24H70.3022V0H0.302246V24Z" fill="white"/>
<path d="M9.47914 18.5866H12.4568V8.19359H16.1638V18.5866H18.9175L22.0892 13.4125L23.3809 10.8214V18.5866H26.3211V12.4645L28.1627 16.6393H30.0581L31.8943 12.3883L31.8808 18.5866H37.2665L38.5879 16.2639L41.4148 18.2406L41.5432 18.3304L41.6723 18.2404L44.4994 16.2634L45.8208 18.5863H48.2557V18.5866H51.2333V8.19359H54.9404V18.5866H57.6944L60.8658 13.4125L61.8732 11.3497V18.5866H64.8322V5.4562H62.1716L58.7949 11.0385L57.8994 12.9547V5.4562H44.5483V8.19359H48.2557V17.2359L41.5437 5.4375L41.5387 5.44638L41.5364 5.44264L41.4148 5.65607V5.66425L34.8397 17.2221V5.4562H31.8994L29.101 11.8731L26.3211 5.4562H23.3809V5.47958L20.0183 11.0385L19.1226 12.9547V5.4562H5.77197V8.19359H9.47907L9.47914 18.5866ZM41.544 11.0676L43.1196 13.8374L41.5435 14.9394L39.9679 13.8379L41.544 11.0676Z" fill="white"/>
</g>
<defs>
<clipPath id="clip0_521_9144">
<rect width="70" height="24" fill="white" transform="translate(0.302246)"/>
</clipPath>
</defs>
</svg>
