<svg width="204" height="36" viewBox="0 0 204 36" fill="none" xmlns="http://www.w3.org/2000/svg">
<path d="M47.063 35.5122V24.6504H50.1725V32.7245H53.0404V24.6504H56.15V32.7245H59.0179V24.6504H62.1274V35.5122H47.063Z" fill="white"/>
<path d="M65.0269 35.5122V24.6504H68.1364V28.8418L71.8973 24.6504H75.5005L71.4036 29.1504L75.8263 35.5122H72.2229L69.355 31.4004L68.1258 32.7245V35.5221H65.0269V35.5122Z" fill="white"/>
<path d="M78.2737 34.1582C77.0551 33.0431 76.4458 31.6891 76.4458 30.0863C76.4458 28.4834 77.0551 27.1294 78.2737 26.0144C79.4923 24.8993 81.0155 24.3418 82.8329 24.3418C84.6503 24.3418 86.1736 24.8993 87.3922 26.0144C88.6109 27.1294 89.2201 28.4834 89.2201 30.0863C89.2201 31.6891 88.6109 33.0431 87.3922 34.1582C86.1736 35.2732 84.6503 35.8308 82.8329 35.8308C81.0155 35.8308 79.4818 35.2633 78.2737 34.1582ZM80.5639 27.9259C79.9441 28.5133 79.6394 29.2301 79.6394 30.0763C79.6394 30.9226 79.9441 31.6394 80.5639 32.2267C81.1837 32.8141 81.94 33.1029 82.8329 33.1029C83.7258 33.1029 84.4823 32.8141 85.1021 32.2267C85.7219 31.6394 86.0265 30.9226 86.0265 30.0763C86.0265 29.2301 85.7219 28.5133 85.1021 27.9259C84.4823 27.3385 83.7258 27.0498 82.8329 27.0498C81.9295 27.0498 81.1837 27.3484 80.5639 27.9259Z" fill="white"/>
<path d="M90.229 35.5122V32.7942C90.3341 32.8341 90.4181 32.8639 90.4706 32.8739C90.6597 32.9237 90.8174 32.9535 90.9644 32.9535C91.2271 32.9535 91.4581 32.8938 91.6577 32.7644C91.8573 32.6349 92.0464 32.406 92.225 32.0675C92.4036 31.729 92.5296 31.2312 92.6242 30.5642C92.7187 29.8971 92.7608 29.0708 92.7608 28.0852V24.6604H101.606V35.5221H98.4965V27.448H95.8807V28.0652C95.8807 29.2699 95.8178 30.3153 95.6812 31.2212C95.5446 32.1272 95.366 32.8739 95.1349 33.4513C94.9038 34.0287 94.6096 34.4967 94.2629 34.8551C93.9163 35.2135 93.5381 35.4624 93.1389 35.6117C92.7502 35.7611 92.2985 35.8308 91.7943 35.8308C91.4476 35.8308 91.0799 35.781 90.7122 35.6715C90.5231 35.6117 90.3656 35.5619 90.229 35.5122Z" fill="white"/>
<path d="M103.119 35.5122L107.457 24.6504H110.893L115.231 35.5122H111.869L111.05 33.1825H107.289L106.47 35.5122H103.119ZM108.109 30.7832H110.241L109.212 27.677H109.149L108.109 30.7832Z" fill="white"/>
<path d="M120.62 35.5122V24.6504H128.972V27.209H123.73V28.3738H125.936C127.144 28.3738 128.131 28.7124 128.888 29.3894C129.644 30.0664 130.022 30.9225 130.022 31.938C130.022 32.9535 129.644 33.8097 128.888 34.4867C128.131 35.1637 127.144 35.5022 125.936 35.5022H120.62V35.5122ZM123.73 32.9535H125.778C126.104 32.9535 126.377 32.854 126.598 32.6549C126.818 32.4557 126.923 32.2168 126.923 31.938C126.923 31.6593 126.818 31.4203 126.598 31.2212C126.377 31.0221 126.104 30.9225 125.778 30.9225H123.73V32.9535Z" fill="white"/>
<path d="M132.124 35.5122V24.6504H135.233V30.6239L140.15 24.6504H142.849V35.5122H139.74V29.5387L134.823 35.5122H132.124Z" fill="white"/>
<path d="M144.593 33.9591L146.39 32.0974C146.568 32.3065 146.789 32.4757 147.083 32.6051C147.671 32.9337 148.312 33.1029 149.016 33.1029C149.562 33.1029 149.972 33.0133 150.245 32.8341C150.518 32.6549 150.655 32.4359 150.655 32.177C150.655 31.9182 150.529 31.6991 150.266 31.5199C150.003 31.3407 149.646 31.2511 149.174 31.2511H147.703V28.7721H148.932C149.405 28.7721 149.751 28.6925 149.982 28.5432C150.214 28.3839 150.329 28.1848 150.329 27.9259C150.329 27.3584 149.835 27.0697 148.858 27.0697C148.386 27.0697 147.892 27.1992 147.367 27.458C147.199 27.5376 147.02 27.6671 146.81 27.8463L145.013 25.9845C145.339 25.6759 145.717 25.4071 146.127 25.1781C147.062 24.6306 148.113 24.3518 149.268 24.3518C150.644 24.3518 151.726 24.6505 152.514 25.2578C153.302 25.8651 153.691 26.5918 153.691 27.458C153.691 28.2146 153.344 28.8319 152.661 29.3197C152.367 29.5188 152.031 29.6682 151.642 29.7876C152.104 29.937 152.493 30.1261 152.819 30.3651C153.617 30.9325 154.016 31.6494 154.016 32.5056C154.016 33.4514 153.596 34.2379 152.766 34.875C151.936 35.5122 150.77 35.8407 149.268 35.8407C148.018 35.8407 146.862 35.5321 145.833 34.9049C145.36 34.6261 144.95 34.3076 144.593 33.9591Z" fill="white"/>
<path d="M156.17 35.5122V24.6504H159.279V28.6028H163.45V24.6504H166.559V35.5122H163.45V31.4004H159.279V35.5122H156.17Z" fill="white"/>
<path d="M169.47 35.5122V24.6504H178.231V27.2887H172.579V28.8418H176.918V31.3208H172.579V32.8739H178.389V35.5122H169.47Z" fill="white"/>
<path d="M189.482 31.7093L191.362 33.7303C190.994 34.1385 190.564 34.4869 190.08 34.7856C189.009 35.4825 187.769 35.821 186.362 35.821C184.534 35.821 183.021 35.2635 181.802 34.1484C180.584 33.0334 179.975 31.6794 179.975 30.0765C179.975 28.4737 180.584 27.1196 181.802 26.0046C183.021 24.8895 184.544 24.332 186.362 24.332C187.738 24.332 188.967 24.6805 190.049 25.3873C190.532 25.7059 190.942 26.0544 191.278 26.4228L189.398 28.4438C189.146 28.1849 188.872 27.9559 188.568 27.7469C187.853 27.2789 187.129 27.05 186.372 27.05C185.479 27.05 184.723 27.3387 184.103 27.9261C183.483 28.5135 183.179 29.2303 183.179 30.0765C183.179 30.9228 183.483 31.6396 184.103 32.227C184.723 32.8144 185.479 33.1031 186.372 33.1031C187.118 33.1031 187.853 32.8741 188.599 32.4062C188.925 32.1971 189.219 31.9681 189.482 31.7093Z" fill="white"/>
<path d="M191.887 35.5122L196.226 24.6504H199.661L204 35.5122H200.638L199.819 33.1825H196.058L195.238 35.5122H191.887ZM196.877 30.7832H199.01L197.98 27.677H197.917L196.877 30.7832Z" fill="white"/>
<path d="M61.8227 12.5642L65.0268 15.9989C64.3965 16.6859 63.6717 17.2832 62.8523 17.8009C61.0244 18.9856 58.9128 19.573 56.5176 19.573C53.4081 19.573 50.8238 18.6273 48.7438 16.7257C46.6637 14.8242 45.6343 12.5144 45.6343 9.78653C45.6343 7.05865 46.6742 4.73896 48.7438 2.84736C50.8133 0.955769 53.4081 0 56.5176 0C58.8603 0 60.9508 0.597343 62.7997 1.80199C63.6191 2.34956 64.3124 2.93695 64.8902 3.57412L61.6862 7.00887C61.2555 6.57081 60.7827 6.17257 60.2574 5.81416C59.0493 5.0177 57.7992 4.61949 56.5176 4.61949C54.9944 4.61949 53.7022 5.11728 52.6517 6.11285C51.6011 7.10843 51.0759 8.33298 51.0759 9.77657C51.0759 11.2202 51.6011 12.4447 52.6517 13.4403C53.7022 14.4359 54.9944 14.9336 56.5176 14.9336C57.7782 14.9336 59.0493 14.5354 60.31 13.739C60.8772 13.4104 61.3814 13.0122 61.8227 12.5642Z" fill="white"/>
<path d="M67.3486 19.0453V0.537598H72.6538V10.7223L81.0264 0.537598H85.6277V19.0453H80.3226V8.8606L71.9499 19.0453H67.3486Z" fill="white"/>
<path d="M89.6196 19.0453V0.537598H94.9246V7.27764H102.037V0.537598H107.342V19.0453H102.037V12.0365H94.9246V19.0453H89.6196Z" fill="white"/>
<path d="M111.323 19.0454V0.537598H126.251V5.03759H116.628V7.68583H124.024V11.917H116.628V14.5653H126.535V19.0653H111.323V19.0454Z" fill="white"/>
<path d="M129.413 19.0454V0.537598H138.206C140.349 0.537598 142.093 1.15486 143.438 2.37942C144.782 3.60398 145.465 5.15708 145.465 7.01881C145.465 8.88054 144.793 10.4336 143.438 11.6582C142.093 12.8828 140.349 13.5 138.206 13.5H134.718V19.0553H129.413V19.0454ZM134.718 9H137.922C138.532 9 139.057 8.80088 139.498 8.40265C139.939 8.00442 140.149 7.54647 140.149 7.01881C140.149 6.49116 139.929 6.02321 139.498 5.62498C139.067 5.22675 138.532 5.02766 137.922 5.02766H134.718V9Z" fill="white"/>
<path d="M148.333 19.0453V0.537598H162.011V5.29645H153.638V19.0453H148.333Z" fill="white"/>
<path d="M164.322 19.0453V0.537598H169.627V10.7223L178 0.537598H182.601V19.0453H177.296V8.8606L168.923 19.0453H164.322Z" fill="white"/>
<path d="M185.059 19.0453L189.104 12.1659C188.473 11.8872 187.917 11.4989 187.433 11.0011C186.32 9.9458 185.763 8.57189 185.763 6.87941C185.763 5.07742 186.435 3.57409 187.769 2.35949C189.114 1.14489 190.816 0.537598 192.875 0.537598H202.088V19.0453H196.783V13.2312H193.852L190.648 19.0453H185.059ZM193.148 8.7312H196.772V5.02765H193.148C192.539 5.02765 192.035 5.20686 191.646 5.55531C191.257 5.90376 191.057 6.35176 191.057 6.87941C191.057 7.40707 191.257 7.84514 191.646 8.20354C192.035 8.56195 192.539 8.7312 193.148 8.7312Z" fill="white"/>
<path d="M22.7331 21.6239L18.9512 18.0398L22.7331 14.4557V7.27759L11.377 18.0398L22.7331 28.802V21.6239Z" fill="#FF0040"/>
<path d="M0 0.0895996V36H37.8922V0.0895996H0ZM32.482 30.8628H5.42064V5.21684H32.482V30.8628Z" fill="#FF0040"/>
</svg>
